[Header]
FileType HTR
DataType HTRS
FileVersion 1
NumSegments 22
NumFrames 7
DataFrameRate 24
EulerRotationOrder ZYX
CalibrationUnits mm
RotationUnits Degrees
GlobalAxisofGravity Y
BoneLengthAxis Y
ScaleFactor 1.0
[SegmentNames&Hierarchy]
reference	GLOBAL
Hips	reference
Spine	Hips
Spine1	Spine
Neck	Spine1
Head	Neck
LeftShoulder	Spine1
LeftArm	LeftShoulder
LeftForeArm	LeftArm
LeftHand	LeftForeArm
RightShoulder	Spine1
RightArm	RightShoulder
RightForeArm	RightArm
RightHand	RightForeArm
LeftUpLeg	Hips
LeftLeg	LeftUpLeg
LeftFoot	LeftLeg
LeftToeBase	LeftFoot
RightUpLeg	Hips
RightLeg	RightUpLeg
RightFoot	RightLeg
RightToeBase	RightFoot
[BasePosition]
reference	0	0	0	0	0	0	1
Hips	0	0	0	0	0	0	1
Spine	0	0	0	-0	-90	0	1
Spine1	0	0	0	0	0	0	1
Neck	0	0	0	82.64767223	-82.64767223	-90	1
Head	0	0	0	-0	-90	0	1
LeftShoulder	0	0	0	0	0	0	1
LeftArm	0	0	0	0	0	0	1
LeftForeArm	0	0	0	0	0	0	1
LeftHand	0	0	0	0	0	0	1
RightShoulder	0	0	0	0	-0	180	1
RightArm	0	0	0	0	-0	180	1
RightForeArm	0	0	0	0	-0	180	1
RightHand	0	0	0	0	-0	180	1
LeftUpLeg	0	0	0	-0	90	0	1
LeftLeg	0	0	0	-0	90	0	1
LeftFoot	0	0	0	-23.42853957	23.42853957	-90	1
LeftToeBase	0	0	0	0	-0	-90	1
RightUpLeg	0	0	0	-0	90	0	1
RightLeg	0	0	0	-0	90	0	1
RightFoot	0	0	0	-23.42853957	23.42853957	-90	1
RightToeBase	0	0	0	0	-0	-90	1
[reference]
1	0	0	0	0	-0	0	1.0
2	0	0	0	0	-0	0	1.0
3	0	0	0	0	-0	0	1.0
4	0	0	0	0	-0	0	1.0
5	0	0	0	0	-0	0	1.0
6	0	0	0	0	-0	0	1.0
7	0	0	0	0	-0	0	1.0
[Hips]
1	4.886119843	0.005080000497	7.987010002	0.2321366519	0.3216583729	-104.3719788	1.0
2	4.886119843	0.005080000497	7.987010002	0.5662029982	0.548882246	-104.4648438	1.0
3	4.886119843	0.005080000497	7.987010002	0.9097644687	1.212027311	-104.6197052	1.0
4	4.886119843	0.005080000497	7.987010002	0.67359972	1.347930908	-104.3582916	1.0
5	4.886119843	0.005080000497	7.987010002	0.1568385512	1.253889322	-103.261673	1.0
6	4.886119843	0.005080000497	7.987010002	-0.5168076754	0.9022054076	-101.4261017	1.0
7	4.886119843	0.005080000497	7.987010002	-0.8981720209	0.3674699664	-99.00064087	1.0
[Spine]
1	0	0	0.7457100153	79.68778229	85.2849884	81.1712265	1.0
2	0	0	0.7457100153	74.01615906	85.00143433	75.87297821	1.0
3	0	0	0.7457100153	63.81038666	84.3381958	66.66023254	1.0
4	0	0	0.7457100153	61.50922775	84.30610657	64.55825043	1.0
5	0	0	0.7457100153	61.25603867	85.02121735	63.9504509	1.0
6	0	0	0.7457100153	67.83145905	86.320755	69.79768372	1.0
7	0	0	0.7457100153	82.71762848	87.69541931	84.1526413	1.0
[Spine1]
1	0	0	2.140589952	7.387571812	-1.857036829	1.43031919	1.0
2	0	0	2.140589952	7.998991013	-1.33759439	1.513840795	1.0
3	0	0	2.140589952	10.2393446	-0.661493957	1.657113791	1.0
4	0	0	2.140589952	11.29628944	-0.5435093045	1.639938831	1.0
5	0	0	2.140589952	11.54936028	-0.500436604	1.424343348	1.0
6	0	0	2.140589952	10.90897465	-0.8365626931	1.060204744	1.0
7	0	0	2.140589952	9.89145565	-1.000133753	0.6766496301	1.0
[Neck]
1	0	0	2.32246995	-65.72341919	97.02793121	-43.69204712	1.0
2	0	0	2.32246995	-71.16286469	96.86457825	-48.63891602	1.0
3	0	0	2.32246995	-80.20697021	96.35647583	-56.37161636	1.0
4	0	0	2.32246995	-83.47605896	96.15409088	-58.95462799	1.0
5	0	0	2.32246995	-88.50484467	95.88614655	-63.73323059	1.0
6	0	0	2.32246995	-92.52288055	95.64904785	-68.26256561	1.0
7	0	0	2.32246995	-97.3232193	95.0448761	-74.32350159	1.0
[Head]
1	0	-0.1818799973	1.409579992	-57.68205261	87.45687103	-55.63563156	1.0
2	0	-0.1818799973	1.409579992	-77.76413727	88.15389252	-75.3328476	1.0
3	0	-0.1818799973	1.409579992	-112.5713501	88.358078	-109.0845184	1.0
4	0	-0.1818799973	1.409579992	-113.6018372	88.27173615	-109.9873505	1.0
5	0	-0.1818799973	1.409579992	-101.9608459	88.23981476	-98.66220093	1.0
6	0	-0.1818799973	1.409579992	-89.52825928	88.08712769	-86.57164001	1.0
7	0	-0.1818799973	1.409579992	-87.43202209	87.52984619	-83.21638489	1.0
[LeftShoulder]
1	0.3668199778	0.02662999928	1.946700096	-9.460609436	-2.058497906	-14.778759	1.0
2	0.3668199778	0.02662999928	1.946700096	-11.208498	-1.371572614	-14.30354595	1.0
3	0.3668199778	0.02662999928	1.946700096	-12.42062473	0.5143715143	-13.60849571	1.0
4	0.3668199778	0.02662999928	1.946700096	-12.84674644	1.128730059	-13.53520012	1.0
5	0.3668199778	0.02662999928	1.946700096	-13.24316311	1.82184422	-13.4048481	1.0
6	0.3668199778	0.02662999928	1.946700096	-14.51907635	2.279411316	-13.47875404	1.0
7	0.3668199778	0.02662999928	1.946700096	-16.42530441	2.020682335	-14.3460865	1.0
[LeftArm]
1	1.140689969	0	0	71.63778687	48.84946442	44.26583481	1.0
2	1.140689969	0	0	71.19042206	50.31698227	43.03616333	1.0
3	1.140689969	0	0	66.29315186	55.11132431	37.25125504	1.0
4	1.140689969	0	0	63.12473297	57.00972366	34.55392456	1.0
5	1.140689969	0	0	59.46127701	58.97689819	30.91399765	1.0
6	1.140689969	0	0	59.05483246	60.44893646	27.02384186	1.0
7	1.140689969	0	0	63.18950653	61.69855881	22.57139969	1.0
[LeftForeArm]
1	2.749800205	0	0	-6.394748211	25.83545876	-29.44003296	1.0
2	2.749800205	0	0	-7.000258446	22.55239868	-27.81443214	1.0
3	2.749800205	0	0	-7.942152977	15.2980423	-26.44235992	1.0
4	2.749800205	0	0	-8.605909348	12.85060787	-27.71265793	1.0
5	2.749800205	0	0	-11.13570881	10.51019573	-31.95738602	1.0
6	2.749800205	0	0	-12.59561443	8.635632515	-38.25117874	1.0
7	2.749800205	0	0	-12.35411644	4.855274677	-48.27025604	1.0
[LeftHand]
1	2.295179844	0	0	-0.1857420951	6.193388939	-12.66241837	1.0
2	2.295179844	0	0	-1.598936319	2.491044521	-12.74313068	1.0
3	2.295179844	0	0	-3.661658287	-5.584762096	-13.85336494	1.0
4	2.295179844	0	0	-4.375819683	-8.419924736	-14.1278677	1.0
5	2.295179844	0	0	-6.762991905	-10.10308266	-15.24593258	1.0
6	2.295179844	0	0	-8.288218498	-8.897839546	-17.03479767	1.0
7	2.295179844	0	0	-9.038901329	-7.082931042	-18.17360115	1.0
[RightShoulder]
1	-0.3601199985	0.02662999928	1.946700096	-7.964265823	5.640487194	-175.3531036	1.0
2	-0.3601199985	0.02662999928	1.946700096	-7.622883797	5.410774231	-175.0562439	1.0
3	-0.3601199985	0.02662999928	1.946700096	-7.089190483	5.507727623	-174.5824738	1.0
4	-0.3601199985	0.02662999928	1.946700096	-7.082356453	5.902161598	-174.6037445	1.0
5	-0.3601199985	0.02662999928	1.946700096	-6.815870762	5.705849648	-174.4828644	1.0
6	-0.3601199985	0.02662999928	1.946700096	-6.339589596	5.102272511	-174.4896088	1.0
7	-0.3601199985	0.02662999928	1.946700096	-5.213465691	4.570293903	-175.27742	1.0
[RightArm]
1	-1.140689969	0	0	30.6068573	-61.19588852	-147.9061584	1.0
2	-1.140689969	0	0	29.81255722	-61.3735466	-148.2470398	1.0
3	-1.140689969	0	0	28.7816925	-62.64812851	-149.4538269	1.0
4	-1.140689969	0	0	29.35135269	-63.85466003	-150.71521	1.0
5	-1.140689969	0	0	28.35918045	-64.27811432	-154.6523285	1.0
6	-1.140689969	0	0	32.63719177	-64.28158569	-162.6173859	1.0
7	-1.140689969	0	0	36.79678345	-62.84496307	-173.0817566	1.0
[RightForeArm]
1	-2.749800205	0	0	19.89529991	7.742357731	-83.89707947	1.0
2	-2.749800205	0	0	19.14717674	7.573393345	-86.60049438	1.0
3	-2.749800205	0	0	17.60019302	7.650315762	-94.32559204	1.0
4	-2.749800205	0	0	17.15480232	7.80905962	-98.71248627	1.0
5	-2.749800205	0	0	14.59662437	2.902407408	-104.376976	1.0
6	-2.749800205	0	0	12.7215395	0.009346991777	-109.367424	1.0
7	-2.749800205	0	0	10.1034441	-5.641255379	-112.6409988	1.0
[RightHand]
1	-2.295179844	0	0	12.75822735	8.738044739	-160.8889618	1.0
2	-2.295179844	0	0	12.67778206	9.164903641	-160.3850708	1.0
3	-2.295179844	0	0	12.35564995	10.40368462	-160.2449493	1.0
4	-2.295179844	0	0	12.46876717	11.4308548	-160.2036743	1.0
5	-2.295179844	0	0	14.67158222	12.82867432	-159.5186157	1.0
6	-2.295179844	0	0	15.15072918	12.99803352	-158.6905212	1.0
7	-2.295179844	0	0	16.46516037	13.2667017	-158.0205841	1.0
[LeftUpLeg]
1	0.9094099998	0	0	27.61904907	-91.70554352	-48.03060913	1.0
2	0.9094099998	0	0	-3.050632	-92.43516541	-19.92542648	1.0
3	0.9094099998	0	0	-25.65540314	-94.90304565	-1.576002836	1.0
4	0.9094099998	0	0	-25.4731636	-95.48132324	-2.777800083	1.0
5	0.9094099998	0	0	-29.31715393	-95.73338318	0.08006286621	1.0
6	0.9094099998	0	0	-28.608078	-94.903862	-0.8951425552	1.0
7	0.9094099998	0	0	-34.53533936	-93.69799805	5.864738464	1.0
[LeftLeg]
1	0	0	-4.498080254	60.75756454	-71.60679626	-27.54288292	1.0
2	0	0	-4.498080254	62.45002365	-67.50675201	-26.42375374	1.0
3	0	0	-4.498080254	67.576828	-56.47808456	-26.60858536	1.0
4	0	0	-4.498080254	70.11333466	-51.90712357	-26.77021408	1.0
5	0	0	-4.498080254	73.21601868	-45.24220657	-25.53089142	1.0
6	0	0	-4.498080254	76.76848602	-41.10612488	-23.03712082	1.0
7	0	0	-4.498080254	79.01493835	-42.82292557	-18.91674995	1.0
[LeftFoot]
1	0	0	-3.729400158	-59.8340683	-4.078196049	119.3370361	1.0
2	0	0	-3.729400158	-60.2370224	-0.7400513887	121.2835541	1.0
3	0	0	-3.729400158	-60.48960495	8.7230196	123.2600784	1.0
4	0	0	-3.729400158	-60.83105469	11.6422348	123.1934052	1.0
5	0	0	-3.729400158	-60.82169342	14.36535358	125.1773911	1.0
6	0	0	-3.729400158	-59.86168671	16.98870087	127.2079468	1.0
7	0	0	-3.729400158	-57.76249313	16.22677231	128.5520325	1.0
[LeftToeBase]
1	0	-1.364109993	-0.5911099911	-9.999999975e-007	0	0	1.0
2	0	-1.364109993	-0.5911099911	-9.999999975e-007	0	0	1.0
3	0	-1.364109993	-0.5911099911	-9.999999975e-007	0	0	1.0
4	0	-1.364109993	-0.5911099911	-9.999999975e-007	0	0	1.0
5	0	-1.364109993	-0.5911099911	-9.999999975e-007	0	0	1.0
6	0	-1.364109993	-0.5911099911	-9.999999975e-007	0	0	1.0
7	0	-1.364109993	-0.5911099911	-9.999999975e-007	0	0	1.0
[RightUpLeg]
1	-0.9094099998	0	0	-68.83784485	-101.0824661	65.66281128	1.0
2	-0.9094099998	0	0	-65.80579376	-101.2424011	60.60575867	1.0
3	-0.9094099998	0	0	-63.28002167	-102.1210556	53.95035553	1.0
4	-0.9094099998	0	0	-66.18583679	-101.7120514	55.68123627	1.0
5	-0.9094099998	0	0	-70.87557983	-101.9619446	59.80001831	1.0
6	-0.9094099998	0	0	-74.09200287	-105.1190414	63.29335022	1.0
7	-0.9094099998	0	0	-76.77701569	-105.835434	65.78952026	1.0
[RightLeg]
1	0	0	-4.498080254	15.12452221	-84.35758972	14.33586502	1.0
2	0	0	-4.498080254	31.51087189	-82.81560516	-0.1337416172	1.0
3	0	0	-4.498080254	32.85793304	-81.5329895	3.413569927	1.0
4	0	0	-4.498080254	-17.90657806	-84.47177124	56.62324142	1.0
5	0	0	-4.498080254	-60.5880928	-82.43434143	100.3875809	1.0
6	0	0	-4.498080254	-14.37544918	-83.41482544	52.77468109	1.0
7	0	0	-4.498080254	-19.62363625	-82.69161987	56.81665802	1.0
[RightFoot]
1	0	0	-3.729400158	-67.05737305	-21.73791122	98.55603027	1.0
2	0	0	-3.729400158	-68.74768066	-20.25195122	99.5943985	1.0
3	0	0	-3.729400158	-69.29482269	-19.72201347	100.5694733	1.0
4	0	0	-3.729400158	-66.20710754	-22.13600349	93.48690796	1.0
5	0	0	-3.729400158	-63.34443283	-23.77454948	87.45717621	1.0
6	0	0	-3.729400158	-65.58274841	-21.80269241	93.54706573	1.0
7	0	0	-3.729400158	-63.38169098	-23.18176651	91.82579041	1.0
[RightToeBase]
1	0	-1.364109993	-0.5911099911	-9.999999975e-007	-9.999999975e-007	-9.999999975e-007	1.0
2	0	-1.364109993	-0.5911099911	-9.999999975e-007	-9.999999975e-007	-9.999999975e-007	1.0
3	0	-1.364109993	-0.5911099911	-9.999999975e-007	-9.999999975e-007	-9.999999975e-007	1.0
4	0	-1.364109993	-0.5911099911	-9.999999975e-007	-9.999999975e-007	-9.999999975e-007	1.0
5	0	-1.364109993	-0.5911099911	-9.999999975e-007	-9.999999975e-007	-9.999999975e-007	1.0
6	0	-1.364109993	-0.5911099911	-9.999999975e-007	-9.999999975e-007	-9.999999975e-007	1.0
7	0	-1.364109993	-0.5911099911	-9.999999975e-007	-9.999999975e-007	-9.999999975e-007	1.0
[EndOfFile]
